<?xml version="1.0" encoding="UTF-8" standalone="no"?>
<svg
   xmlns:dc="http://purl.org/dc/elements/1.1/"
   xmlns:cc="http://creativecommons.org/ns#"
   xmlns:rdf="http://www.w3.org/1999/02/22-rdf-syntax-ns#"
   xmlns:svg="http://www.w3.org/2000/svg"
   xmlns="http://www.w3.org/2000/svg"
   height="30"
   width="30"
   xml:space="preserve"
   viewBox="0 0 30 30"
   y="0px"
   x="0px"
   id="Layer_1"
   version="1.1"><metadata
   id="metadata1339"><rdf:RDF><cc:Work
       rdf:about=""><dc:format>image/svg+xml</dc:format><dc:type
         rdf:resource="https://purl.org/dc/dcmitype/StillImage" /><dc:title></dc:title></cc:Work></rdf:RDF></metadata><defs
   id="defs1337" />
<style
   id="style1097"
   type="text/css">
	.st0{fill:url(#SVGID_1_);}
	.st1{fill:#FAFAFA;}
	.st2{fill:#273654;}
	.st3{fill:#FFFFFF;}
	.st4{fill:url(#SVGID_2_);}
	.st5{fill:url(#SVGID_3_);}
	.st6{fill:url(#SVGID_4_);}
	.st7{fill:url(#SVGID_5_);}
	.st8{fill:url(#SVGID_6_);}
	.st9{fill:url(#SVGID_7_);}
	.st10{fill:url(#SVGID_8_);}
	.st11{fill:url(#SVGID_9_);}
	.st12{opacity:0.4;fill:url(#SVGID_10_);enable-background:new    ;}
	.st13{opacity:0.67;fill:#FFFFFF;enable-background:new    ;}
	.st14{fill:url(#SVGID_11_);}
	.st15{fill:url(#SVGID_12_);}
	.st16{fill:url(#SVGID_13_);}
	.st17{fill:url(#SVGID_14_);}
	.st18{fill:url(#SVGID_15_);}
	.st19{fill:url(#SVGID_16_);}
	.st20{fill:url(#SVGID_17_);}
	.st21{fill:url(#SVGID_18_);}
	.st22{fill:url(#SVGID_19_);}
	.st23{fill:url(#SVGID_20_);}
	.st24{fill:url(#SVGID_21_);}
	.st25{fill:url(#SVGID_22_);}
	.st26{fill:url(#SVGID_23_);}
	.st27{fill:url(#SVGID_24_);}
	.st28{fill:url(#SVGID_25_);}
	.st29{fill:url(#SVGID_26_);}
	.st30{fill:url(#SVGID_27_);}
	.st31{fill:url(#SVGID_28_);}
	.st32{fill:url(#SVGID_29_);}
</style>
<linearGradient
   gradientTransform="matrix(0.9786,0.2056,0.2056,-0.9786,-431.4134,-471.0533)"
   y2="-393.01221"
   x2="533.30072"
   y1="-406.30981"
   x1="556.33282"
   gradientUnits="userSpaceOnUse"
   id="SVGID_1_">
	<stop
   id="stop1099"
   style="stop-color:#579B94"
   offset="0" />
	<stop
   id="stop1101"
   style="stop-color:#345053"
   offset="1" />
</linearGradient>












<linearGradient
   gradientTransform="matrix(-0.9413,0.3376,0.3376,0.9413,-1471.4055,-275.29278)"
   y2="833.4256"
   x2="-1290.3871"
   y1="833.4256"
   x1="-1299.4612"
   gradientUnits="userSpaceOnUse"
   id="SVGID_2_">
	<stop
   id="stop1128"
   style="stop-color:#273755"
   offset="1.331947e-07" />
	<stop
   id="stop1130"
   style="stop-color:#579B94"
   offset="0.9962" />
</linearGradient>

<linearGradient
   gradientTransform="matrix(0.7948926,-0.6067731,-0.6067731,-0.7948926,-78.33528,916.27622)"
   y2="578.99121"
   x2="582.23798"
   y1="578.99121"
   x1="573.16388"
   gradientUnits="userSpaceOnUse"
   id="SVGID_3_">
	<stop
   id="stop1135"
   style="stop-color:#273755"
   offset="1.331947e-07" />
	<stop
   id="stop1137"
   style="stop-color:#579B94"
   offset="0.9962" />
</linearGradient>

<linearGradient
   gradientTransform="matrix(-0.7243,0.6895,0.6895,0.7243,-1376.0776,63.177656)"
   y2="965.68982"
   x2="-989.9491"
   y1="965.68982"
   x1="-1002.6532"
   gradientUnits="userSpaceOnUse"
   id="SVGID_4_">
	<stop
   id="stop1142"
   style="stop-color:#FFFFFF"
   offset="0" />
	<stop
   id="stop1144"
   style="stop-color:#A9DEDC"
   offset="1" />
</linearGradient>

<linearGradient
   gradientTransform="matrix(-0.9413,0.3376,0.3376,0.9413,-1477.6632,-273.0723)"
   y2="829.33521"
   x2="-1289.1232"
   y1="829.33521"
   x1="-1298.7686"
   gradientUnits="userSpaceOnUse"
   id="SVGID_5_">
	<stop
   id="stop1149"
   style="stop-color:#FFFFFF"
   offset="0" />
	<stop
   id="stop1151"
   style="stop-color:#A9DEDC"
   offset="1" />
</linearGradient>

<linearGradient
   gradientTransform="matrix(0.9925,-0.1223,-0.1223,-0.9925,-497.31535,-384.5863)"
   y2="-506.47"
   x2="476.21051"
   y1="-583.59857"
   x1="462.95779"
   gradientUnits="userSpaceOnUse"
   id="SVGID_6_">
	<stop
   id="stop1156"
   style="stop-color:#D5EFEE"
   offset="0" />
	<stop
   id="stop1158"
   style="stop-color:#75CAC6"
   offset="0.9962" />
</linearGradient>

<linearGradient
   gradientTransform="matrix(0.93722237,-0.34875174,-0.34875174,-0.93722237,-569.92089,-260.37442)"
   y2="-586.11438"
   x2="421.02399"
   y1="-527.5921"
   x1="466.73599"
   gradientUnits="userSpaceOnUse"
   id="SVGID_7_">
	<stop
   id="stop1163"
   style="stop-color:#FFFFFF"
   offset="0" />
	<stop
   id="stop1165"
   style="stop-color:#A9DEDC"
   offset="1" />
</linearGradient>

<linearGradient
   gradientTransform="matrix(0.99509669,-0.1218937,-0.12261997,-0.98920273,-499.43866,-450.22458)"
   y2="-542.69562"
   x2="477.08771"
   y1="-515.37299"
   x1="436.10391"
   gradientUnits="userSpaceOnUse"
   id="SVGID_8_">
	<stop
   id="stop1170"
   style="stop-color:#FFFFFF"
   offset="0" />
	<stop
   id="stop1172"
   style="stop-color:#A9DEDC"
   offset="1" />
</linearGradient>
<path
   style="fill:url(#SVGID_8_);stroke-width:0.999643"
   id="path1175"
   d="m 29.687075,11.7608 c -0.100262,-0.29901 -0.100262,-0.59801 -0.200524,-0.99668 0,-0.0997 -0.100261,-0.29901 -0.100261,-0.39867 -0.100262,-0.299004 -0.200524,-0.697674 -0.300785,-0.996678 v 0 C 28.884982,8.970101 28.78472,8.57143 28.584197,8.272427 28.383673,7.973423 28.18315,7.574752 27.982627,7.275749 27.481319,6.478406 26.980011,5.780732 26.378441,5.182726 26.177918,4.883722 25.877133,4.684387 25.67661,4.385383 25.375825,4.08638 25.175301,3.887044 24.874517,3.687709 L 24.774255,3.588039 C 24.47347,3.289036 24.172685,3.0897 23.771639,2.890365 c 0,0 0,0 -0.100262,-0.09967 C 23.370592,2.591359 23.069807,2.392024 22.769022,2.192688 22.468237,1.993353 22.167453,1.893685 21.866668,1.694349 c -0.100262,0 -0.200524,-0.09967 -0.300785,-0.09967 C 20.864051,1.295676 20.16222,0.996672 19.360127,0.797336 18.959081,0.697666 18.558034,0.598001 18.056726,0.498333 c -0.300785,-0.09967 -0.60157,-0.09967 -0.902355,-0.199336 -0.100261,0 -0.200523,0 -0.200523,0 v 0 c -1.20314,-0.199335 -2.506541,-0.199335 -3.809942,0 -3.208372,0.398671 -6.015697,1.694354 -8.2214532,3.687709 -0.100262,0 -0.60157,21.528234 -0.60157,21.627904 v 0 c 0.100262,0.0997 0.100262,0.0997 0.200523,0.19933 0.200524,0.19934 0.300785,0.29901 0.5013082,0.49834 0.200524,0.0997 0.300785,0.29901 0.501309,0.39867 0.200523,0.0997 0.401046,0.29901 0.501308,0.39867 0.200523,0.0997 0.401046,0.29901 0.601569,0.39868 0.200524,0.0997 0.401047,0.299 0.60157,0.39867 0.200523,0.0997 0.401047,0.19933 0.501308,0.299 0.200524,0.0997 0.401047,0.19934 0.701832,0.299 0.200523,0.0997 0.401046,0.19934 0.601569,0.29901 0.401047,0.19933 0.902355,0.39867 1.303402,0.49834 0.200523,0.0997 0.401046,0.0997 0.601569,0.19933 0.200524,0.0997 0.401047,0.0997 0.701832,0.19934 0.401046,0.0997 0.802093,0.19933 1.203139,0.19933 0.501308,0.0997 1.102878,0.0997 1.604186,0.0997 0.200524,0 0.501308,0 0.701832,0 0.501308,0 1.002616,0 1.503924,-0.0997 8.221454,-0.99668 14.036628,-8.47176 13.034012,-16.54485 0.100261,-0.79734 0.100261,-1.19601 0,-1.59468 z"
   class="st10" />
<linearGradient
   gradientTransform="matrix(0.99509669,-0.1218937,-0.12261997,-0.98920273,-499.43866,-450.22458)"
   y2="-534.46637"
   x2="459.10999"
   y1="-517.41663"
   x1="438.00519"
   gradientUnits="userSpaceOnUse"
   id="SVGID_9_">
	<stop
   id="stop1177"
   style="stop-color:#273755"
   offset="1.331947e-07" />
	<stop
   id="stop1179"
   style="stop-color:#579B94"
   offset="0.9962" />
</linearGradient>
<path
   style="fill:url(#SVGID_9_);stroke-width:0.999643"
   id="path1182"
   d="m 22.969546,17.74086 c -0.802093,3.98671 -2.506541,6.47841 -3.408896,6.87708 -1.503924,0.69767 -3.308633,1.29568 -10.026162,1.19601 -2.005233,0 -3.709681,-0.299 -5.0130822,-0.49834 v 0 c -0.100261,-0.0997 -0.200523,-0.19933 -0.300785,-0.299 -0.200523,-0.19933 -0.300784,-0.299 -0.501308,-0.49834 -1.102878,-1.19601 -1.904971,-2.59136 -2.50654,-4.08638 -0.200524,-0.49834 -0.300785,-0.99667 -0.501309,-1.39535 -0.100261,-0.299 -0.200523,-0.69767 -0.300784,-0.99667 0,-0.0997 0,-0.19934 -0.100262,-0.19934 v 0 C 0.2101558,17.44186 0.1098948,17.14286 0.1098948,16.74419 -0.4916755,11.7608 1.4132958,6.976746 4.9224528,3.887044 6.526639,3.687709 9.033179,3.687709 12.542336,4.285716 c 4.210989,0.598006 7.519622,2.093023 9.22407,3.289036 0.501308,0.299004 0.802093,0.697675 1.002616,0.89701 0.701832,0.89701 1.20314,4.086378 0.200524,9.269098 z"
   class="st11" />
<linearGradient
   gradientTransform="matrix(0.99329198,0.13524918,0.13605503,-0.98740871,-319.28626,-295.9558)"
   y2="-263.6214"
   x2="387.6124"
   y1="-263.6214"
   x1="358.5853"
   gradientUnits="userSpaceOnUse"
   id="SVGID_10_">
	<stop
   id="stop1184"
   style="stop-color:#273755"
   offset="1.331947e-07" />
	<stop
   id="stop1186"
   style="stop-color:#579B94"
   offset="0.9962" />
</linearGradient>
<path
   style="opacity:0.4;fill:url(#SVGID_10_);stroke-width:0.999643;enable-background:new"
   id="path1189"
   d="m 29.887598,12.95681 c 1.002616,8.17276 -4.812558,15.54817 -13.034012,16.54485 -0.501308,0.0997 -1.002616,0.0997 -1.503924,0.0997 -0.200523,0 -0.501308,0 -0.701831,0 -0.501309,0 -1.102878,0 -1.604186,-0.0997 -0.401047,-0.0997 -0.802093,-0.0997 -1.20314,-0.19933 -0.200523,0 -0.401046,-0.0997 -0.701831,-0.19934 -0.200524,0 -0.401047,-0.0997 -0.60157,-0.19934 -0.501308,-0.0997 -0.902355,-0.299 -1.303401,-0.49833 C 9.033179,28.30562 8.832656,28.20598 8.632133,28.10631 8.43161,28.00661 8.130825,27.90698 7.930302,27.80731 7.729778,27.70761 7.529255,27.60797 7.428993,27.50831 7.22847,27.40861 7.027947,27.30897 6.827424,27.10963 6.6269,27.00993 6.426377,26.9103 6.225854,26.71096 6.025331,26.61126 5.824807,26.41196 5.724546,26.31229 5.524023,26.21259 5.423761,26.01329 5.223238,25.91362 5.022714,25.71429 4.9224528,25.61462 4.7219298,25.41528 c -0.100262,-0.0997 -0.100262,-0.0997 -0.200524,-0.19933 v 0 c -0.100261,-0.0997 -0.200523,-0.19934 -0.300785,-0.29901 -0.200523,-0.19933 -0.300784,-0.299 -0.501308,-0.49834 -1.002616,-1.19601 -1.904971,-2.59136 -2.50654,-4.08637 -0.300785,-0.89701 -0.60157,-1.79402 -0.802093,-2.69103 2.205755,3.3887 6.1159592,5.68106 11.3295632,5.08305 8.6225,-1.09634 11.730611,-8.87043 10.126425,-15.348833 C 21.164836,4.485051 19.460389,1.794021 17.05411,0 c 0.802093,0.09967 1.604186,0.299003 2.406279,0.498339 0.701831,0.199335 1.503924,0.498339 2.205755,0.797343 0.100262,0 0.200524,0.09967 0.300785,0.09967 0.300785,0.199335 0.60157,0.299003 0.902355,0.498339 0.300785,0.199335 0.60157,0.398671 0.902355,0.598007 l 0.100261,0.09967 c 0.300785,0.199336 0.60157,0.498339 1.002617,0.697675 l 0.100261,0.09967 c 0.300785,0.199335 0.501308,0.498338 0.802093,0.697674 0.300785,0.299003 0.501308,0.498339 0.701832,0.797342 0.601569,0.697674 1.102877,1.395349 1.604186,2.093024 0.200523,0.299003 0.401046,0.697674 0.601569,0.996677 0.200524,0.398672 0.300785,0.697674 0.501308,1.096345 v 0 c 0.100262,0.299004 0.200524,0.697676 0.300785,0.996678 0,0.09966 0.100262,0.299007 0.100262,0.398667 0.100262,0.29901 0.200523,0.59801 0.200523,0.99668 0,0.69768 0,1.09635 0.100262,1.49502 z"
   class="st12" />
<path
   style="opacity:0.67;fill:#ffffff;stroke-width:0.999643;enable-background:new"
   id="path1191"
   d="M 6.6269,10.66445 C 5.724546,13.05648 4.0200978,14.55149 2.8169588,14.05316 1.6138188,13.55482 1.4132958,11.36213 2.3156498,8.970101 3.2180048,6.578075 4.9224528,5.083058 6.125592,5.581396 7.328732,5.980068 7.529255,8.272426 6.6269,10.66445 Z"
   class="st13" />
<path
   style="opacity:0.67;fill:#ffffff;stroke-width:0.999643;enable-background:new"
   id="path1193"
   d="M 10.236319,6.079736 C 9.835272,6.677742 9.133441,6.877077 8.832656,6.677742 8.43161,6.378739 8.531871,5.681065 8.932918,5.182726 9.333964,4.584719 10.035796,4.385383 10.336581,4.584719 c 0.401046,0.199335 0.300785,0.89701 -0.100262,1.495017 z"
   class="st13" />
<path
   style="opacity:0.67;fill:#ffffff;stroke-width:0.999643;enable-background:new"
   id="path1195"
   d="m 6.526639,17.04319 c 0.100261,1.29568 -0.300785,2.29236 -0.902355,2.39203 -0.60157,0.0997 -1.2031392,-0.89701 -1.3034012,-2.1927 -0.100262,-1.29568 0.300785,-2.29235 0.9023552,-2.39202 0.601569,0 1.203139,0.99668 1.303401,2.19269 z"
   class="st13" />
<linearGradient
   gradientTransform="matrix(0.9476,-0.3194,-0.3194,-0.9476,-467.2171,-586.2028)"
   y2="-798.34839"
   x2="298.10529"
   y1="-798.34839"
   x1="288.98651"
   gradientUnits="userSpaceOnUse"
   id="SVGID_11_">
	<stop
   id="stop1197"
   style="stop-color:#273755"
   offset="1.331947e-07" />
	<stop
   id="stop1199"
   style="stop-color:#579B94"
   offset="0.9962" />
</linearGradient>

<linearGradient
   gradientTransform="matrix(0.9925,-0.1223,-0.1223,-0.9925,-464.945,-416.6253)"
   y2="-547.12848"
   x2="470.69061"
   y1="-547.12848"
   x1="457.98669"
   gradientUnits="userSpaceOnUse"
   id="SVGID_12_">
	<stop
   id="stop1204"
   style="stop-color:#FFFFFF"
   offset="0" />
	<stop
   id="stop1206"
   style="stop-color:#A9DEDC"
   offset="1" />
</linearGradient>

<linearGradient
   gradientTransform="matrix(0.9589,-0.2838,-0.2838,-0.9589,-463.6055,-555.0268)"
   y2="-760.15723"
   x2="334.39969"
   y1="-760.15723"
   x1="324.70761"
   gradientUnits="userSpaceOnUse"
   id="SVGID_13_">
	<stop
   id="stop1211"
   style="stop-color:#FFFFFF"
   offset="0" />
	<stop
   id="stop1213"
   style="stop-color:#A9DEDC"
   offset="1" />
</linearGradient>

<linearGradient
   gradientTransform="matrix(0.7659,0.6429,0.6429,-0.7659,-782.9148,165.8714)"
   y2="615.34998"
   x2="609.05127"
   y1="614.13977"
   x1="601.78998"
   gradientUnits="userSpaceOnUse"
   id="SVGID_14_">
	<stop
   id="stop1218"
   style="stop-color:#FFFFFF"
   offset="0" />
	<stop
   id="stop1220"
   style="stop-color:#A9DEDC"
   offset="1" />
</linearGradient>

<linearGradient
   gradientTransform="matrix(0.7659,0.6429,0.6429,-0.7659,-782.9148,165.8714)"
   y2="610.50043"
   x2="603.23907"
   y1="615.63849"
   x1="601.14227"
   gradientUnits="userSpaceOnUse"
   id="SVGID_15_">
	<stop
   id="stop1225"
   style="stop-color:#273755"
   offset="1.331947e-07" />
	<stop
   id="stop1227"
   style="stop-color:#579B94"
   offset="0.9962" />
</linearGradient>

<linearGradient
   gradientTransform="matrix(0.6937,0.7203,0.7203,-0.6937,-157.03674,348.91574)"
   y2="322.3244"
   x2="-82.049896"
   y1="330.66321"
   x1="-91.331299"
   gradientUnits="userSpaceOnUse"
   id="SVGID_16_">
	<stop
   id="stop1232"
   style="stop-color:#FFFFFF"
   offset="0" />
	<stop
   id="stop1234"
   style="stop-color:#A9DEDC"
   offset="1" />
</linearGradient>

<linearGradient
   gradientTransform="matrix(-0.6816,-0.7317,0.7317,-0.6816,-1313.776,-838.76776)"
   y2="360.6062"
   x2="-1563.405"
   y1="365.74411"
   x1="-1565.5016"
   gradientUnits="userSpaceOnUse"
   id="SVGID_17_">
	<stop
   id="stop1239"
   style="stop-color:#273755"
   offset="1.331947e-07" />
	<stop
   id="stop1241"
   style="stop-color:#579B94"
   offset="0.9962" />
</linearGradient>

<linearGradient
   gradientTransform="matrix(0.11913657,-0.99288469,-0.99288469,-0.11913657,-576.29032,451.89151)"
   y2="-565.45898"
   x2="427.90921"
   y1="-553.20148"
   x1="422.47171"
   gradientUnits="userSpaceOnUse"
   id="SVGID_18_">
	<stop
   id="stop1246"
   style="stop-color:#FFFFFF"
   offset="0" />
	<stop
   id="stop1248"
   style="stop-color:#A9DEDC"
   offset="1" />
</linearGradient>

<linearGradient
   gradientTransform="matrix(-6.4905354e-4,-1.0000011,-1.0000011,6.4905354e-4,-677.89315,424.54786)"
   y2="-716.26813"
   x2="314.43439"
   y1="-701.93329"
   x1="312.15909"
   gradientUnits="userSpaceOnUse"
   id="SVGID_19_">
	<stop
   id="stop1253"
   style="stop-color:#FFFFFF"
   offset="0" />
	<stop
   id="stop1255"
   style="stop-color:#A9DEDC"
   offset="1" />
</linearGradient>

<linearGradient
   gradientTransform="matrix(0.99946804,0.03238601,0.03238601,-0.99946804,7.2310105,1493.6206)"
   y2="1376.118"
   x2="-20.625099"
   y1="1376.118"
   x1="-29.127001"
   gradientUnits="userSpaceOnUse"
   id="SVGID_20_">
	<stop
   id="stop1260"
   style="stop-color:#FFFFFF"
   offset="0" />
	<stop
   id="stop1262"
   style="stop-color:#A9DEDC"
   offset="1" />
</linearGradient>

<linearGradient
   gradientTransform="matrix(0.99946804,0.03238601,0.03238601,-0.99946804,7.2310105,1493.6206)"
   y2="1378.3782"
   x2="-20.2449"
   y1="1378.3782"
   x1="-24.875999"
   gradientUnits="userSpaceOnUse"
   id="SVGID_21_">
	<stop
   id="stop1267"
   style="stop-color:#273755"
   offset="1.331947e-07" />
	<stop
   id="stop1269"
   style="stop-color:#579B94"
   offset="0.9962" />
</linearGradient>

<linearGradient
   gradientTransform="matrix(0.87536398,0.48364255,-0.48364255,0.87536398,-540.62872,757.65955)"
   y2="-854.73907"
   x2="202.7121"
   y1="-854.73907"
   x1="193.6382"
   gradientUnits="userSpaceOnUse"
   id="SVGID_22_">
	<stop
   id="stop1274"
   style="stop-color:#273755"
   offset="1.331947e-07" />
	<stop
   id="stop1276"
   style="stop-color:#579B94"
   offset="0.9962" />
</linearGradient>

<linearGradient
   gradientTransform="matrix(0.68584439,-0.72775752,-0.72775752,-0.68584439,-673.46871,24.856733)"
   y2="-578.03162"
   x2="449.70239"
   y1="-568.33112"
   x1="434.72049"
   gradientUnits="userSpaceOnUse"
   id="SVGID_23_">
	<stop
   id="stop1281"
   style="stop-color:#FFFFFF"
   offset="0" />
	<stop
   id="stop1283"
   style="stop-color:#A9DEDC"
   offset="1" />
</linearGradient>

<linearGradient
   gradientTransform="matrix(0.68584439,-0.72775752,-0.72775752,-0.68584439,-673.46871,24.856733)"
   y2="-590.48419"
   x2="441.05139"
   y1="-578.61591"
   x1="425.66171"
   gradientUnits="userSpaceOnUse"
   id="SVGID_24_">
	<stop
   id="stop1288"
   style="stop-color:#FFFFFF"
   offset="0" />
	<stop
   id="stop1290"
   style="stop-color:#A9DEDC"
   offset="1" />
</linearGradient>

<linearGradient
   gradientTransform="matrix(0.68584439,-0.72775752,-0.72775752,-0.68584439,-673.46871,24.856733)"
   y2="-591.92432"
   x2="432.82129"
   y1="-584.55139"
   x1="421.30109"
   gradientUnits="userSpaceOnUse"
   id="SVGID_25_">
	<stop
   id="stop1295"
   style="stop-color:#FFFFFF"
   offset="0" />
	<stop
   id="stop1297"
   style="stop-color:#A9DEDC"
   offset="1" />
</linearGradient>

<linearGradient
   gradientTransform="matrix(0.68584439,-0.72775752,-0.72775752,-0.68584439,-673.46871,24.856733)"
   y2="-589.36029"
   x2="431.6225"
   y1="-582.35608"
   x1="424.80261"
   gradientUnits="userSpaceOnUse"
   id="SVGID_26_">
	<stop
   id="stop1302"
   style="stop-color:#273755"
   offset="1.331947e-07" />
	<stop
   id="stop1304"
   style="stop-color:#579B94"
   offset="0.9962" />
</linearGradient>

<linearGradient
   gradientTransform="matrix(0.93722237,-0.34875174,-0.34875174,-0.93722237,-564.56821,-266.01258)"
   y2="-564.34448"
   x2="448.40219"
   y1="-540.62958"
   x1="442.8656"
   gradientUnits="userSpaceOnUse"
   id="SVGID_27_">
	<stop
   id="stop1309"
   style="stop-color:#273755"
   offset="1.331947e-07" />
	<stop
   id="stop1311"
   style="stop-color:#579B94"
   offset="0.9962" />
</linearGradient>

<linearGradient
   gradientTransform="matrix(0.9588,0.284,0.284,-0.9588,-562.4597,-89.6145)"
   y2="12.2654"
   x2="656.06293"
   y1="4.8923001"
   x1="655.97058"
   gradientUnits="userSpaceOnUse"
   id="SVGID_28_">
	<stop
   id="stop1316"
   style="stop-color:#273755"
   offset="1.331947e-07" />
	<stop
   id="stop1318"
   style="stop-color:#579B94"
   offset="0.9962" />
</linearGradient>



<linearGradient
   gradientTransform="matrix(0.6937,0.7203,0.7203,-0.6937,-161.56281,351.89582)"
   y2="324.48209"
   x2="-85.368599"
   y1="325.44751"
   x1="-90.334297"
   gradientUnits="userSpaceOnUse"
   id="SVGID_29_">
	<stop
   id="stop1327"
   style="stop-color:#FFFFFF"
   offset="0" />
	<stop
   id="stop1329"
   style="stop-color:#C0E7E4"
   offset="1" />
</linearGradient>

</svg>
